<mxfile host="app.diagrams.net" modified="2021-08-10T19:49:12.969Z" agent="5.0 (Windows NT 10.0; Win64; x64) AppleWebKit/537.36 (KHTML, like Gecko) Chrome/92.0.4515.107 Safari/537.36" etag="CXpKeGqP0G-vGudVOAvj" version="14.9.3" type="github">
  <diagram name="Page-1" id="90a13364-a465-7bf4-72fc-28e22215d7a0">
    <mxGraphModel dx="1718" dy="935" grid="1" gridSize="10" guides="1" tooltips="1" connect="1" arrows="1" fold="1" page="1" pageScale="1.5" pageWidth="1169" pageHeight="826" background="none" math="0" shadow="0">
      <root>
        <mxCell id="0" style=";html=1;" />
        <mxCell id="1" style=";html=1;" parent="0" />
        <mxCell id="3a17f1ce550125da-1" value="Raspberry Pi / Small PC" style="whiteSpace=wrap;html=1;shadow=1;fontSize=20;fillColor=#f5f5f5;strokeColor=#666666;strokeWidth=2;dashed=1;" parent="1" vertex="1">
          <mxGeometry x="380" y="344" width="790" height="60" as="geometry" />
        </mxCell>
        <mxCell id="3a17f1ce550125da-13" style="edgeStyle=elbowEdgeStyle;rounded=0;html=1;startArrow=none;startFill=0;jettySize=auto;orthogonalLoop=1;fontSize=18;elbow=vertical;" parent="1" source="3a17f1ce550125da-2" target="3a17f1ce550125da-4" edge="1">
          <mxGeometry relative="1" as="geometry" />
        </mxCell>
        <mxCell id="3a17f1ce550125da-14" style="edgeStyle=elbowEdgeStyle;rounded=0;html=1;startArrow=none;startFill=0;jettySize=auto;orthogonalLoop=1;fontSize=18;elbow=vertical;" parent="1" target="3a17f1ce550125da-5" edge="1">
          <mxGeometry relative="1" as="geometry">
            <mxPoint x="957.17" y="605.3103448275863" as="sourcePoint" />
          </mxGeometry>
        </mxCell>
        <mxCell id="tZ4kp2ZxLxgT_KVESJq--17" value="" style="edgeStyle=orthogonalEdgeStyle;rounded=0;orthogonalLoop=1;jettySize=auto;html=1;exitX=1.002;exitY=0.798;exitDx=0;exitDy=0;exitPerimeter=0;" edge="1" parent="1" source="3a17f1ce550125da-2" target="tZ4kp2ZxLxgT_KVESJq--16">
          <mxGeometry relative="1" as="geometry">
            <mxPoint x="956.9999999999999" y="643.3520000000001" as="sourcePoint" />
            <Array as="points">
              <mxPoint x="957" y="690" />
              <mxPoint x="957" y="690" />
            </Array>
          </mxGeometry>
        </mxCell>
        <mxCell id="3a17f1ce550125da-2" value="DabMux" style="whiteSpace=wrap;html=1;shadow=1;fontSize=18;fillColor=#f5f5f5;strokeColor=#666666;" parent="1" vertex="1">
          <mxGeometry x="787" y="454" width="170" height="296" as="geometry" />
        </mxCell>
        <mxCell id="tZ4kp2ZxLxgT_KVESJq--6" value="" style="edgeStyle=orthogonalEdgeStyle;rounded=0;orthogonalLoop=1;jettySize=auto;html=1;" edge="1" parent="1" source="3a17f1ce550125da-4" target="tZ4kp2ZxLxgT_KVESJq--5">
          <mxGeometry relative="1" as="geometry" />
        </mxCell>
        <mxCell id="3a17f1ce550125da-4" value="DabMod" style="whiteSpace=wrap;html=1;shadow=1;fontSize=18;fillColor=#f5f5f5;strokeColor=#666666;" parent="1" vertex="1">
          <mxGeometry x="1045" y="460" width="120" height="60" as="geometry" />
        </mxCell>
        <mxCell id="3a17f1ce550125da-5" value="EasyDAB&lt;br&gt;&lt;br&gt;&lt;br&gt;&lt;br&gt;&lt;br&gt;" style="whiteSpace=wrap;html=1;shadow=1;fontSize=18;fillColor=#f5f5f5;strokeColor=#666666;" parent="1" vertex="1">
          <mxGeometry x="1280" y="580" width="320.17" height="150" as="geometry" />
        </mxCell>
        <mxCell id="3a17f1ce550125da-20" style="edgeStyle=elbowEdgeStyle;rounded=0;html=1;startArrow=none;startFill=0;jettySize=auto;orthogonalLoop=1;fontSize=18;elbow=vertical;" parent="1" source="3a17f1ce550125da-8" target="3a17f1ce550125da-2" edge="1">
          <mxGeometry relative="1" as="geometry">
            <Array as="points">
              <mxPoint x="750" y="502" />
              <mxPoint x="750" y="480" />
              <mxPoint x="757" y="514" />
            </Array>
          </mxGeometry>
        </mxCell>
        <mxCell id="3a17f1ce550125da-8" value="AudioEnc&lt;br&gt;AAC+" style="whiteSpace=wrap;html=1;shadow=1;fontSize=18;fillColor=#f5f5f5;strokeColor=#666666;" parent="1" vertex="1">
          <mxGeometry x="597" y="444" width="120" height="116" as="geometry" />
        </mxCell>
        <mxCell id="3a17f1ce550125da-21" style="edgeStyle=elbowEdgeStyle;rounded=0;html=1;startArrow=none;startFill=0;jettySize=auto;orthogonalLoop=1;fontSize=18;elbow=vertical;" parent="1" source="3a17f1ce550125da-9" target="3a17f1ce550125da-8" edge="1">
          <mxGeometry relative="1" as="geometry" />
        </mxCell>
        <mxCell id="3a17f1ce550125da-9" value="PadEnc" style="whiteSpace=wrap;html=1;shadow=1;fontSize=18;fillColor=#f5f5f5;strokeColor=#666666;" parent="1" vertex="1">
          <mxGeometry x="390" y="444" width="130" height="36" as="geometry" />
        </mxCell>
        <mxCell id="tZ4kp2ZxLxgT_KVESJq--4" value="Analog Signal Generator" style="whiteSpace=wrap;html=1;shadow=1;fontSize=20;fillColor=#f5f5f5;strokeColor=#666666;strokeWidth=2;dashed=1;" vertex="1" parent="1">
          <mxGeometry x="1260" y="344" width="350" height="60" as="geometry" />
        </mxCell>
        <mxCell id="tZ4kp2ZxLxgT_KVESJq--5" value="LimeSDR Mini&lt;br&gt;&lt;br&gt;&lt;br&gt;&lt;br&gt;" style="whiteSpace=wrap;html=1;shadow=1;fontSize=18;fillColor=#f5f5f5;strokeColor=#666666;" vertex="1" parent="1">
          <mxGeometry x="1280" y="430" width="320" height="120" as="geometry" />
        </mxCell>
        <mxCell id="tZ4kp2ZxLxgT_KVESJq--13" value="EDI" style="text;html=1;resizable=0;autosize=1;align=center;verticalAlign=middle;points=[];fillColor=none;strokeColor=none;rounded=0;" vertex="1" parent="1">
          <mxGeometry x="980" y="470" width="40" height="20" as="geometry" />
        </mxCell>
        <mxCell id="tZ4kp2ZxLxgT_KVESJq--14" value="I/Q" style="text;html=1;resizable=0;autosize=1;align=center;verticalAlign=middle;points=[];fillColor=none;strokeColor=none;rounded=0;" vertex="1" parent="1">
          <mxGeometry x="1200" y="470" width="30" height="20" as="geometry" />
        </mxCell>
        <mxCell id="tZ4kp2ZxLxgT_KVESJq--16" value="File" style="whiteSpace=wrap;html=1;shadow=1;fontSize=18;strokeColor=#666666;fillColor=#f5f5f5;" vertex="1" parent="1">
          <mxGeometry x="1037.17" y="660" width="120" height="60" as="geometry" />
        </mxCell>
        <mxCell id="tZ4kp2ZxLxgT_KVESJq--19" value="ETI" style="text;html=1;resizable=0;autosize=1;align=center;verticalAlign=middle;points=[];fillColor=none;strokeColor=none;rounded=0;" vertex="1" parent="1">
          <mxGeometry x="980" y="665" width="30" height="20" as="geometry" />
        </mxCell>
        <mxCell id="tZ4kp2ZxLxgT_KVESJq--23" value="" style="edgeStyle=orthogonalEdgeStyle;rounded=0;orthogonalLoop=1;jettySize=auto;html=1;entryX=-0.003;entryY=0.509;entryDx=0;entryDy=0;entryPerimeter=0;" edge="1" parent="1" source="tZ4kp2ZxLxgT_KVESJq--22" target="3a17f1ce550125da-2">
          <mxGeometry relative="1" as="geometry" />
        </mxCell>
        <mxCell id="tZ4kp2ZxLxgT_KVESJq--22" value="File&lt;br&gt;DABP" style="whiteSpace=wrap;html=1;shadow=1;fontSize=18;fillColor=#f5f5f5;strokeColor=#666666;" vertex="1" parent="1">
          <mxGeometry x="597" y="580" width="120" height="50" as="geometry" />
        </mxCell>
        <mxCell id="tZ4kp2ZxLxgT_KVESJq--27" value="" style="edgeStyle=orthogonalEdgeStyle;rounded=0;orthogonalLoop=1;jettySize=auto;html=1;entryX=-0.007;entryY=0.783;entryDx=0;entryDy=0;entryPerimeter=0;" edge="1" parent="1" source="tZ4kp2ZxLxgT_KVESJq--26" target="3a17f1ce550125da-2">
          <mxGeometry relative="1" as="geometry" />
        </mxCell>
        <mxCell id="tZ4kp2ZxLxgT_KVESJq--26" value="EDI&lt;br&gt;&lt;span style=&quot;font-size: 12px&quot;&gt;ETI over TCP or UDP&lt;/span&gt;" style="whiteSpace=wrap;html=1;shadow=1;fontSize=18;fillColor=#f5f5f5;strokeColor=#666666;" vertex="1" parent="1">
          <mxGeometry x="210" y="660" width="130" height="50" as="geometry" />
        </mxCell>
        <mxCell id="tZ4kp2ZxLxgT_KVESJq--31" value="EDI" style="text;html=1;resizable=0;autosize=1;align=center;verticalAlign=middle;points=[];fillColor=none;strokeColor=none;rounded=0;" vertex="1" parent="1">
          <mxGeometry x="725" y="474" width="40" height="20" as="geometry" />
        </mxCell>
        <mxCell id="tZ4kp2ZxLxgT_KVESJq--36" value="" style="edgeStyle=orthogonalEdgeStyle;rounded=0;orthogonalLoop=1;jettySize=auto;html=1;entryX=-0.004;entryY=0.85;entryDx=0;entryDy=0;entryPerimeter=0;" edge="1" parent="1" source="tZ4kp2ZxLxgT_KVESJq--34" target="3a17f1ce550125da-8">
          <mxGeometry relative="1" as="geometry" />
        </mxCell>
        <mxCell id="tZ4kp2ZxLxgT_KVESJq--34" value="Jack&lt;br&gt;Sound Card" style="whiteSpace=wrap;html=1;shadow=1;fontSize=18;fillColor=#f5f5f5;strokeColor=#666666;" vertex="1" parent="1">
          <mxGeometry x="390" y="520" width="130" height="46" as="geometry" />
        </mxCell>
        <mxCell id="tZ4kp2ZxLxgT_KVESJq--39" value="" style="edgeStyle=orthogonalEdgeStyle;rounded=0;orthogonalLoop=1;jettySize=auto;html=1;" edge="1" parent="1" source="tZ4kp2ZxLxgT_KVESJq--35" target="3a17f1ce550125da-8">
          <mxGeometry relative="1" as="geometry" />
        </mxCell>
        <mxCell id="tZ4kp2ZxLxgT_KVESJq--35" value="Web Streams" style="whiteSpace=wrap;html=1;shadow=1;fontSize=18;fillColor=#f5f5f5;strokeColor=#666666;" vertex="1" parent="1">
          <mxGeometry x="210" y="484" width="130" height="36" as="geometry" />
        </mxCell>
        <mxCell id="tZ4kp2ZxLxgT_KVESJq--40" value="EDI" style="text;html=1;resizable=0;autosize=1;align=center;verticalAlign=middle;points=[];fillColor=none;strokeColor=none;rounded=0;" vertex="1" parent="1">
          <mxGeometry x="1100" y="580" width="40" height="20" as="geometry" />
        </mxCell>
        <mxCell id="tZ4kp2ZxLxgT_KVESJq--48" value="" style="edgeStyle=orthogonalEdgeStyle;rounded=0;orthogonalLoop=1;jettySize=auto;html=1;" edge="1" parent="1" source="tZ4kp2ZxLxgT_KVESJq--42" target="tZ4kp2ZxLxgT_KVESJq--46">
          <mxGeometry relative="1" as="geometry" />
        </mxCell>
        <mxCell id="tZ4kp2ZxLxgT_KVESJq--42" value="ETH" style="whiteSpace=wrap;html=1;shadow=1;fontSize=18;fillColor=#f5f5f5;strokeColor=#666666;" vertex="1" parent="1">
          <mxGeometry x="1280" y="665" width="50" height="40" as="geometry" />
        </mxCell>
        <mxCell id="tZ4kp2ZxLxgT_KVESJq--55" value="" style="edgeStyle=orthogonalEdgeStyle;rounded=0;orthogonalLoop=1;jettySize=auto;html=1;" edge="1" parent="1" source="tZ4kp2ZxLxgT_KVESJq--43" target="tZ4kp2ZxLxgT_KVESJq--54">
          <mxGeometry relative="1" as="geometry" />
        </mxCell>
        <mxCell id="tZ4kp2ZxLxgT_KVESJq--43" value="Altera FPGA" style="whiteSpace=wrap;html=1;shadow=1;fontSize=18;fillColor=#f5f5f5;strokeColor=#666666;" vertex="1" parent="1">
          <mxGeometry x="1380" y="489" width="80" height="50" as="geometry" />
        </mxCell>
        <mxCell id="tZ4kp2ZxLxgT_KVESJq--49" value="" style="edgeStyle=orthogonalEdgeStyle;rounded=0;orthogonalLoop=1;jettySize=auto;html=1;" edge="1" parent="1" source="tZ4kp2ZxLxgT_KVESJq--46" target="tZ4kp2ZxLxgT_KVESJq--47">
          <mxGeometry relative="1" as="geometry" />
        </mxCell>
        <mxCell id="tZ4kp2ZxLxgT_KVESJq--46" value="Xilinx FPGA&lt;br&gt;DAB Modulation" style="whiteSpace=wrap;html=1;shadow=1;fontSize=18;fillColor=#f5f5f5;strokeColor=#666666;" vertex="1" parent="1">
          <mxGeometry x="1390" y="650" width="120" height="70" as="geometry" />
        </mxCell>
        <mxCell id="tZ4kp2ZxLxgT_KVESJq--47" value="DAC" style="whiteSpace=wrap;html=1;shadow=1;fontSize=18;fillColor=#f5f5f5;strokeColor=#666666;" vertex="1" parent="1">
          <mxGeometry x="1550.17" y="665" width="50" height="40" as="geometry" />
        </mxCell>
        <mxCell id="tZ4kp2ZxLxgT_KVESJq--51" value="EDI" style="text;html=1;resizable=0;autosize=1;align=center;verticalAlign=middle;points=[];fillColor=none;strokeColor=none;rounded=0;" vertex="1" parent="1">
          <mxGeometry x="1340" y="660" width="40" height="20" as="geometry" />
        </mxCell>
        <mxCell id="tZ4kp2ZxLxgT_KVESJq--52" value="I/Q" style="text;html=1;resizable=0;autosize=1;align=center;verticalAlign=middle;points=[];fillColor=none;strokeColor=none;rounded=0;" vertex="1" parent="1">
          <mxGeometry x="1510" y="660" width="30" height="20" as="geometry" />
        </mxCell>
        <mxCell id="tZ4kp2ZxLxgT_KVESJq--54" value="DAC&lt;br&gt;LMS7002M" style="whiteSpace=wrap;html=1;shadow=1;fontSize=18;fillColor=#f5f5f5;strokeColor=#666666;" vertex="1" parent="1">
          <mxGeometry x="1500" y="489" width="100.17" height="50" as="geometry" />
        </mxCell>
        <mxCell id="tZ4kp2ZxLxgT_KVESJq--58" value="" style="edgeStyle=orthogonalEdgeStyle;rounded=0;orthogonalLoop=1;jettySize=auto;html=1;" edge="1" parent="1" source="tZ4kp2ZxLxgT_KVESJq--57" target="tZ4kp2ZxLxgT_KVESJq--43">
          <mxGeometry relative="1" as="geometry">
            <Array as="points">
              <mxPoint x="1350" y="514" />
              <mxPoint x="1350" y="514" />
            </Array>
          </mxGeometry>
        </mxCell>
        <mxCell id="tZ4kp2ZxLxgT_KVESJq--57" value="USB 3" style="whiteSpace=wrap;html=1;shadow=1;fontSize=18;fillColor=#f5f5f5;strokeColor=#666666;" vertex="1" parent="1">
          <mxGeometry x="1280" y="497" width="60" height="34" as="geometry" />
        </mxCell>
        <mxCell id="tZ4kp2ZxLxgT_KVESJq--59" value="I/Q" style="text;html=1;resizable=0;autosize=1;align=center;verticalAlign=middle;points=[];fillColor=none;strokeColor=none;rounded=0;" vertex="1" parent="1">
          <mxGeometry x="1340" y="494" width="30" height="20" as="geometry" />
        </mxCell>
        <mxCell id="tZ4kp2ZxLxgT_KVESJq--60" value="I/Q" style="text;html=1;resizable=0;autosize=1;align=center;verticalAlign=middle;points=[];fillColor=none;strokeColor=none;rounded=0;" vertex="1" parent="1">
          <mxGeometry x="1460" y="494" width="30" height="20" as="geometry" />
        </mxCell>
      </root>
    </mxGraphModel>
  </diagram>
</mxfile>
